/* XPM */
static char *a9cdc1edaecd44e68a01b28e4ed1a185JqDzDdat29zdZnYr[] = {
/* columns rows colors chars-per-pixel */
"102 130 38 1 ",
"  c None",
". c black",
"X c #2B230F",
"o c #332B13",
"O c #3F2F17",
"+ c gray23",
"@ c #4B371B",
"# c #533F1F",
"$ c #5F4323",
"% c #6B4727",
"& c #774F2B",
"* c gray31",
"= c gray34",
"- c gray39",
"; c #777777",
": c gray50",
"> c #875733",
", c #8F5F37",
"< c #9B633B",
"1 c #A36B3F",
"2 c #AB6F43",
"3 c #B37347",
"4 c #BF7B4B",
"5 c #CB7F4F",
"6 c #CF8353",
"7 c #D78B5B",
"8 c #DF9363",
"9 c #E79B6B",
"0 c #EFA373",
"q c #F7AB7B",
"w c #000083",
"e c #9F9F9F",
"r c gray67",
"t c #FFB383",
"y c #FFBB93",
"u c #FFBF9B",
"i c #FFC7A7",
"p c gray86",
/* pixels */
"                                                                                                      ",
"                                                                                                      ",
"                                                                                                      ",
"                                                                                                      ",
"                                                                                                      ",
"                        @@@@$$$$$$$$%%%%&&&&&&&&&&&&&&&&&&&&&&&&%%%%$$$$$$$$@@@@                      ",
"                        @@@@$$$$$$$$%%%%&&&&&&&&&&&&&&&&&&&&&&&&%%%%$$$$$$$$@@@@                      ",
"                        @@@@$$$$$$$$%%%%&&&&&&&&&&&&&&&&&&&&&&&&%%%%$$$$$$$$@@@@                      ",
"                        @@@@$$$$$$$$%%%%&&&&&&&&&&&&&&&&&&&&&&&&%%%%$$$$$$$$@@@@                      ",
"                oooo$$$$####$$$$%%%%&&&&,,,,<<<<<<<<<<<<<<<<,,,,&&&&%%%%$$$$####$$$$oooo              ",
"                oooo$$$$####$$$$%%%%&&&&,,,,<<<<<<<<<<<<<<<<,,,,&&&&%%%%$$$$####$$$$oooo              ",
"                oooo$$$$####$$$$%%%%&&&&,,,,<<<<<<<<<<<<<<<<,,,,&&&&%%%%$$$$####$$$$oooo              ",
"                oooo$$$$####$$$$%%%%&&&&,,,,<<<<<<<<<<<<<<<<,,,,&&&&%%%%$$$$####$$$$oooo              ",
"            oooo@@@@%%%%&&&&&&&&>>>>,,,,<<<<<<<<<<<<<<<<<<<<<<<<,,,,&&&&&&&&&&&&%%%%@@@@oooo          ",
"            oooo@@@@%%%%&&&&&&&&>>>>,,,,<<<<<<<<<<<<<<<<<<<<<<<<,,,,&&&&&&&&&&&&%%%%@@@@oooo          ",
"            oooo@@@@%%%%&&&&&&&&>>>>,,,,<<<<<<<<<<<<<<<<<<<<<<<<,,,,&&&&&&&&&&&&%%%%@@@@oooo          ",
"            oooo@@@@%%%%&&&&&&&&>>>>,,,,<<<<<<<<<<<<<<<<<<<<<<<<,,,,&&&&&&&&&&&&%%%%@@@@oooo          ",
"            oooo@@@@%%%%>>>>>>>>>>>>,,,,<<<<<<<<<<<<<<<<<<<<<<<<,,,,&&&&&&&&&&&&%%%%@@@@XXXX          ",
"            oooo@@@@%%%%>>>>>>>>>>>>,,,,<<<<<<<<<<<<<<<<<<<<<<<<,,,,&&&&&&&&&&&&%%%%@@@@XXXX          ",
"            oooo@@@@%%%%>>>>>>>>>>>>,,,,<<<<<<<<<<<<<<<<<<<<<<<<,,,,&&&&&&&&&&&&%%%%@@@@XXXX          ",
"            oooo@@@@%%%%>>>>>>>>>>>>,,,,<<<<<<<<<<<<<<<<<<<<<<<<,,,,&&&&&&&&&&&&%%%%@@@@XXXX          ",
"        XXXXoooo$$$$&&&&,,,,<<<<<<<<<<<<<<<<>>>><<<<<<<<<<<<<<<<,,,,,,,,&&&&&&&&%%%%@@@@XXXXXXXX      ",
"        XXXXoooo$$$$&&&&,,,,<<<<<<<<<<<<<<<<>>>><<<<<<<<<<<<<<<<,,,,,,,,&&&&&&&&%%%%@@@@XXXXXXXX      ",
"        XXXXoooo$$$$&&&&,,,,<<<<<<<<<<<<<<<<>>>><<<<<<<<<<<<<<<<,,,,,,,,&&&&&&&&%%%%@@@@XXXXXXXX      ",
"        XXXXoooo$$$$&&&&,,,,<<<<<<<<<<<<<<<<>>>><<<<<<<<<<<<<<<<,,,,,,,,&&&&&&&&%%%%@@@@XXXXXXXX      ",
"        XXXXXXXX&&&&>>>>&&&&,,,,<<<<>>>>>>>>>>>>,,,,1111&&&&&&&&&&&&&&&&$$$$####$$$$ooooooooXXXX      ",
"        XXXXXXXX&&&&>>>>&&&&,,,,<<<<>>>>>>>>>>>>,,,,1111&&&&&&&&&&&&&&&&$$$$####$$$$ooooooooXXXX      ",
"        XXXXXXXX&&&&>>>>&&&&,,,,<<<<>>>>>>>>>>>>,,,,1111&&&&&&&&&&&&&&&&$$$$####$$$$ooooooooXXXX      ",
"        XXXXXXXX&&&&>>>>&&&&,,,,<<<<>>>>>>>>>>>>,,,,1111&&&&&&&&&&&&&&&&$$$$####$$$$ooooooooXXXX      ",
"        XXXXXXXX$$$$&&&&$$$$,,,,<<<<,,,,,,,,,,,,,,,,@@@@,,,,$$$$@@@@$$$$@@@@oooo@@@@XXXXooooXXXX      ",
"        XXXXXXXX$$$$&&&&$$$$,,,,<<<<,,,,,,,,,,,,,,,,@@@@,,,,$$$$@@@@$$$$@@@@oooo@@@@XXXXooooXXXX      ",
"        XXXXXXXX$$$$&&&&$$$$,,,,<<<<,,,,,,,,,,,,,,,,@@@@,,,,$$$$@@@@$$$$@@@@oooo@@@@XXXXooooXXXX      ",
"        XXXXXXXX$$$$&&&&$$$$,,,,<<<<,,,,,,,,,,,,,,,,@@@@,,,,$$$$@@@@$$$$@@@@oooo@@@@XXXXooooXXXX      ",
"        XXXXoooo@@@@####$$$$,,,,####<<<<%%%%%%%%,,,,%%%%@@@@%%%%@@@@OOOO$$$$XXXXooooooooooooXXXX      ",
"        XXXXoooo@@@@####$$$$,,,,####<<<<%%%%%%%%,,,,%%%%@@@@%%%%@@@@OOOO$$$$XXXXooooooooooooXXXX      ",
"        XXXXoooo@@@@####$$$$,,,,####<<<<%%%%%%%%,,,,%%%%@@@@%%%%@@@@OOOO$$$$XXXXooooooooooooXXXX      ",
"        XXXXoooo@@@@####$$$$,,,,####<<<<%%%%%%%%,,,,%%%%@@@@%%%%@@@@OOOO$$$$XXXXooooooooooooXXXX      ",
"        XXXXoooo@@@@&&&&&&&&####,,,,####%%%%&&&&%%%%%%%%,,,,,,,,,,,,>>>>>>>>%%%%####XXXX@@@@XXXX      ",
"        XXXXoooo@@@@&&&&&&&&####,,,,####%%%%&&&&%%%%%%%%,,,,,,,,,,,,>>>>>>>>%%%%####XXXX@@@@XXXX      ",
"        XXXXoooo@@@@&&&&&&&&####,,,,####%%%%&&&&%%%%%%%%,,,,,,,,,,,,>>>>>>>>%%%%####XXXX@@@@XXXX      ",
"        XXXXoooo@@@@&&&&&&&&####,,,,####%%%%&&&&%%%%%%%%,,,,,,,,,,,,>>>>>>>>%%%%####XXXX@@@@XXXX      ",
"        XXXXoooo####&&&&2222&&&&####1111####&&&&,,,,11113333<<<<1111,,,,,,,,,,,,&&&&$$$$@@@@XXXX      ",
"        XXXXoooo####&&&&2222&&&&####1111####&&&&,,,,11113333<<<<1111,,,,,,,,,,,,&&&&$$$$@@@@XXXX      ",
"        XXXXoooo####&&&&2222&&&&####1111####&&&&,,,,11113333<<<<1111,,,,,,,,,,,,&&&&$$$$@@@@XXXX      ",
"        XXXXoooo####&&&&2222&&&&####1111####&&&&,,,,11113333<<<<1111,,,,,,,,,,,,&&&&$$$$@@@@XXXX      ",
"        XXXX@@@@$$$$,,,,22223333111111113333<<<<<<<<<<<<<<<<33331111111133332222,,,,$$$$OOOOXXXX      ",
"        XXXX@@@@$$$$,,,,22223333111111113333<<<<<<<<<<<<<<<<33331111111133332222,,,,$$$$OOOOXXXX      ",
"        XXXX@@@@$$$$,,,,22223333111111113333<<<<<<<<<<<<<<<<33331111111133332222,,,,$$$$OOOOXXXX      ",
"        XXXX@@@@$$$$,,,,22223333111111113333<<<<<<<<<<<<<<<<33331111111133332222,,,,$$$$OOOOXXXX      ",
"        XXXX@@@@&&&&<<<<6666666666661111<<<<&&&&>>>>>>>>&&&&<<<<1111666666666666<<<<&&&&@@@@XXXX      ",
"        XXXX@@@@&&&&<<<<6666666666661111<<<<&&&&>>>>>>>>&&&&<<<<1111666666666666<<<<&&&&@@@@XXXX      ",
"        XXXX@@@@&&&&<<<<6666666666661111<<<<&&&&>>>>>>>>&&&&<<<<1111666666666666<<<<&&&&@@@@XXXX      ",
"        XXXX@@@@&&&&<<<<6666666666661111<<<<&&&&>>>>>>>>&&&&<<<<1111666666666666<<<<&&&&@@@@XXXX      ",
"    3333....@@@@&&&&<<<<666600009999666644441111&&&&&&&&111144446666999900006666<<<<&&&&@@@@....3333  ",
"    3333....@@@@&&&&<<<<666600009999666644441111&&&&&&&&111144446666999900006666<<<<&&&&@@@@....3333  ",
"    3333....@@@@&&&&<<<<666600009999666644441111&&&&&&&&111144446666999900006666<<<<&&&&@@@@....3333  ",
"    3333....@@@@&&&&<<<<666600009999666644441111&&&&&&&&111144446666999900006666<<<<&&&&@@@@....3333  ",
"    3333OOOO@@@@,,,,33339999yyyyyyyytttt999966661111111166669999ttttyyyyyyyy99993333,,,,@@@@OOOO3333  ",
"    3333OOOO@@@@,,,,33339999yyyyyyyytttt999966661111111166669999ttttyyyyyyyy99993333,,,,@@@@OOOO3333  ",
"    3333OOOO@@@@,,,,33339999yyyyyyyytttt999966661111111166669999ttttyyyyyyyy99993333,,,,@@@@OOOO3333  ",
"    3333OOOO@@@@,,,,33339999yyyyyyyytttt999966661111111166669999ttttyyyyyyyy99993333,,,,@@@@OOOO3333  ",
"    ,,,,OOOO@@@@3333############11118888yyyy33336666tttt3333yyyy88881111############3333@@@@OOOO,,,,  ",
"    ,,,,OOOO@@@@3333############11118888yyyy33336666tttt3333yyyy88881111############3333@@@@OOOO,,,,  ",
"    ,,,,OOOO@@@@3333############11118888yyyy33336666tttt3333yyyy88881111############3333@@@@OOOO,,,,  ",
"    ,,,,OOOO@@@@3333############11118888yyyy33336666tttt3333yyyy88881111############3333@@@@OOOO,,,,  ",
"    %%%%$$$$>>>>,,,,OOOOOOOOOOOO%%%%3333%%%%@@@@11111111@@@@%%%%3333%%%%OOOOOOOOOOOO,,,,>>>>$$$$%%%%  ",
"    %%%%$$$$>>>>,,,,OOOOOOOOOOOO%%%%3333%%%%@@@@11111111@@@@%%%%3333%%%%OOOOOOOOOOOO,,,,>>>>$$$$%%%%  ",
"    %%%%$$$$>>>>,,,,OOOOOOOOOOOO%%%%3333%%%%@@@@11111111@@@@%%%%3333%%%%OOOOOOOOOOOO,,,,>>>>$$$$%%%%  ",
"    %%%%$$$$>>>>,,,,OOOOOOOOOOOO%%%%3333%%%%@@@@11111111@@@@%%%%3333%%%%OOOOOOOOOOOO,,,,>>>>$$$$%%%%  ",
"    >>>>$$$$<<<<9999&&&&::::wwww....====....@@@@########@@@@....====....wwww::::&&&&9999<<<<$$$$>>>>  ",
"    >>>>$$$$<<<<9999&&&&::::wwww....====....@@@@########@@@@....====....wwww::::&&&&9999<<<<$$$$>>>>  ",
"    >>>>$$$$<<<<9999&&&&::::wwww....====....@@@@########@@@@....====....wwww::::&&&&9999<<<<$$$$>>>>  ",
"    >>>>$$$$<<<<9999&&&&::::wwww....====....@@@@########@@@@....====....wwww::::&&&&9999<<<<$$$$>>>>  ",
"    ,,,,$$$$5555qqqq9999222200002222<<<<$$$$%%%%22222222%%%%$$$$<<<<2222000022229999qqqq5555$$$$,,,,  ",
"    ,,,,$$$$5555qqqq9999222200002222<<<<$$$$%%%%22222222%%%%$$$$<<<<2222000022229999qqqq5555$$$$,,,,  ",
"    ,,,,$$$$5555qqqq9999222200002222<<<<$$$$%%%%22222222%%%%$$$$<<<<2222000022229999qqqq5555$$$$,,,,  ",
"    ,,,,$$$$5555qqqq9999222200002222<<<<$$$$%%%%22222222%%%%$$$$<<<<2222000022229999qqqq5555$$$$,,,,  ",
"        $$$$5555qqqqqqqq999999999999qqqq77772222qqqqqqqq22227777qqqq999999999999qqqqqqqq5555$$$$      ",
"        $$$$5555qqqqqqqq999999999999qqqq77772222qqqqqqqq22227777qqqq999999999999qqqqqqqq5555$$$$      ",
"        $$$$5555qqqqqqqq999999999999qqqq77772222qqqqqqqq22227777qqqq999999999999qqqqqqqq5555$$$$      ",
"        $$$$5555qqqqqqqq999999999999qqqq77772222qqqqqqqq22227777qqqq999999999999qqqqqqqq5555$$$$      ",
"        >>>>44447777999966664444,,,,$$$$22227777iiiiiiii77772222$$$$,,,,44446666999977774444>>>>      ",
"        >>>>44447777999966664444,,,,$$$$22227777iiiiiiii77772222$$$$,,,,44446666999977774444>>>>      ",
"        >>>>44447777999966664444,,,,$$$$22227777iiiiiiii77772222$$$$,,,,44446666999977774444>>>>      ",
"        >>>>44447777999966664444,,,,$$$$22227777iiiiiiii77772222$$$$,,,,44446666999977774444>>>>      ",
"        >>>>2222555599991111++++%%%%$$$$&&&&1111999999991111&&&&$$$$%%%%++++1111999955552222>>>>      ",
"        >>>>2222555599991111++++%%%%$$$$&&&&1111999999991111&&&&$$$$%%%%++++1111999955552222>>>>      ",
"        >>>>2222555599991111++++%%%%$$$$&&&&1111999999991111&&&&$$$$%%%%++++1111999955552222>>>>      ",
"        >>>>2222555599991111++++%%%%$$$$&&&&1111999999991111&&&&$$$$%%%%++++1111999955552222>>>>      ",
"            <<<<555577772222%%%%++++,,,,4444>>>>>>>>>>>>>>>>4444,,,,++++%%%%222277775555<<<<          ",
"            <<<<555577772222%%%%++++,,,,4444>>>>>>>>>>>>>>>>4444,,,,++++%%%%222277775555<<<<          ",
"            <<<<555577772222%%%%++++,,,,4444>>>>>>>>>>>>>>>>4444,,,,++++%%%%222277775555<<<<          ",
"            <<<<555577772222%%%%++++,,,,4444>>>>>>>>>>>>>>>>4444,,,,++++%%%%222277775555<<<<          ",
"            %%%%555577775555<<<<----****;;;;::::eeeeeeee::::;;;;****----<<<<555577775555%%%%          ",
"            %%%%555577775555<<<<----****;;;;::::eeeeeeee::::;;;;****----<<<<555577775555%%%%          ",
"            %%%%555577775555<<<<----****;;;;::::eeeeeeee::::;;;;****----<<<<555577775555%%%%          ",
"            %%%%555577775555<<<<----****;;;;::::eeeeeeee::::;;;;****----<<<<555577775555%%%%          ",
"                11115555777733337777--------rrrrpppppppprrrr--------77773333777755551111              ",
"                11115555777733337777--------rrrrpppppppprrrr--------77773333777755551111              ",
"                11115555777733337777--------rrrrpppppppprrrr--------77773333777755551111              ",
"                11115555777733337777--------rrrrpppppppprrrr--------77773333777755551111              ",
"                %%%%22225555333322227777----;;;;::::::::;;;;----77772222333355552222%%%%              ",
"                %%%%22225555333322227777----;;;;::::::::;;;;----77772222333355552222%%%%              ",
"                %%%%22225555333322227777----;;;;::::::::;;;;----77772222333355552222%%%%              ",
"                %%%%22225555333322227777----;;;;::::::::;;;;----77772222333355552222%%%%              ",
"                    %%%%222255555555,,,,33337777yyyyyyyy77773333,,,,555555552222%%%%                  ",
"                    %%%%222255555555,,,,33337777yyyyyyyy77773333,,,,555555552222%%%%                  ",
"                    %%%%222255555555,,,,33337777yyyyyyyy77773333,,,,555555552222%%%%                  ",
"                    %%%%222255555555,,,,33337777yyyyyyyy77773333,,,,555555552222%%%%                  ",
"                        %%%%666688885555,,,,$$$$OOOOOOOO$$$$,,,,555588886666%%%%                      ",
"                        %%%%666688885555,,,,$$$$OOOOOOOO$$$$,,,,555588886666%%%%                      ",
"                        %%%%666688885555,,,,$$$$OOOOOOOO$$$$,,,,555588886666%%%%                      ",
"                        %%%%666688885555,,,,$$$$OOOOOOOO$$$$,,,,555588886666%%%%                      ",
"                            %%%%2222888855552222>>>>>>>>2222555588882222%%%%                          ",
"                            %%%%2222888855552222>>>>>>>>2222555588882222%%%%                          ",
"                            %%%%2222888855552222>>>>>>>>2222555588882222%%%%                          ",
"                            %%%%2222888855552222>>>>>>>>2222555588882222%%%%                          ",
"                                %%%%,,,,77779999uuuuuuuu99997777,,,,%%%%                              ",
"                                %%%%,,,,77779999uuuuuuuu99997777,,,,%%%%                              ",
"                                %%%%,,,,77779999uuuuuuuu99997777,,,,%%%%                              ",
"                                %%%%,,,,77779999uuuuuuuu99997777,,,,%%%%                              ",
"                                        $$$$,,,,33333333,,,,$$$$                                      ",
"                                        $$$$,,,,33333333,,,,$$$$                                      ",
"                                        $$$$,,,,33333333,,,,$$$$                                      ",
"                                        $$$$,,,,33333333,,,,$$$$                                      ",
"                                                                                                      ",
"                                                                                                      ",
"                                                                                                      ",
"                                                                                                      ",
"                                                                                                      "
};
