/* XPM */
static char *b1bab1337059444af04e9c2a5418ffa6PkTxJUJ7u6GXG9jS[] = {
/* columns rows colors chars-per-pixel */
"64 64 256 2 ",
"   c black",
".  c #1F170B",
"X  c #13230B",
"o  c #2B230F",
"O  c #332B13",
"+  c #3F2F17",
"@  c #232323",
"#  c #272727",
"$  c #2F2F2F",
"%  c #373737",
"&  c gray23",
"*  c #43331B",
"=  c #4B371B",
"-  c #533F1F",
";  c #4F3B23",
":  c #533F2F",
">  c #574333",
",  c #5F4B37",
"<  c #67533F",
"1  c #434343",
"2  c gray28",
"3  c gray31",
"4  c #A76B6B",
"5  c black",
"6  c black",
"7  c black",
"8  c black",
"9  c black",
"0  c black",
"q  c black",
"w  c black",
"e  c black",
"r  c black",
"t  c black",
"y  c black",
"u  c black",
"i  c black",
"p  c black",
"a  c black",
"s  c black",
"d  c black",
"f  c black",
"g  c black",
"h  c black",
"j  c black",
"k  c black",
"l  c black",
"z  c black",
"x  c black",
"c  c black",
"v  c black",
"b  c black",
"n  c black",
"m  c black",
"M  c black",
"N  c black",
"B  c black",
"V  c black",
"C  c black",
"Z  c black",
"A  c black",
"S  c black",
"D  c black",
"F  c black",
"G  c black",
"H  c black",
"J  c black",
"K  c black",
"L  c black",
"P  c black",
"I  c black",
"U  c black",
"Y  c black",
"T  c black",
"R  c black",
"E  c black",
"W  c black",
"Q  c black",
"!  c black",
"~  c black",
"^  c black",
"/  c black",
"(  c black",
")  c black",
"_  c black",
"`  c black",
"'  c black",
"]  c black",
"[  c black",
"{  c black",
"}  c black",
"|  c black",
" . c black",
".. c black",
"X. c black",
"o. c black",
"O. c black",
"+. c black",
"@. c black",
"#. c black",
"$. c black",
"%. c black",
"&. c black",
"*. c black",
"=. c black",
"-. c black",
";. c black",
":. c black",
">. c black",
",. c black",
"<. c black",
"1. c black",
"2. c black",
"3. c black",
"4. c black",
"5. c black",
"6. c black",
"7. c black",
"8. c black",
"9. c black",
"0. c black",
"q. c black",
"w. c black",
"e. c black",
"r. c black",
"t. c black",
"y. c black",
"u. c black",
"i. c black",
"p. c black",
"a. c black",
"s. c black",
"d. c black",
"f. c black",
"g. c black",
"h. c black",
"j. c black",
"k. c black",
"l. c black",
"z. c black",
"x. c black",
"c. c black",
"v. c black",
"b. c black",
"n. c black",
"m. c black",
"M. c black",
"N. c black",
"B. c black",
"V. c black",
"C. c black",
"Z. c black",
"A. c black",
"S. c black",
"D. c black",
"F. c black",
"G. c black",
"H. c black",
"J. c black",
"K. c black",
"L. c black",
"P. c black",
"I. c black",
"U. c black",
"Y. c black",
"T. c black",
"R. c black",
"E. c black",
"W. c black",
"Q. c black",
"!. c black",
"~. c black",
"^. c black",
"/. c black",
"(. c black",
"). c black",
"_. c black",
"`. c black",
"'. c black",
"]. c black",
"[. c black",
"{. c black",
"}. c black",
"|. c black",
" X c black",
".X c black",
"XX c black",
"oX c black",
"OX c black",
"+X c black",
"@X c black",
"#X c black",
"$X c black",
"%X c black",
"&X c black",
"*X c black",
"=X c black",
"-X c black",
";X c black",
":X c black",
">X c black",
",X c black",
"<X c black",
"1X c black",
"2X c black",
"3X c black",
"4X c black",
"5X c black",
"6X c black",
"7X c black",
"8X c black",
"9X c black",
"0X c black",
"qX c black",
"wX c black",
"eX c black",
"rX c black",
"tX c black",
"yX c black",
"uX c black",
"iX c black",
"pX c black",
"aX c black",
"sX c black",
"dX c black",
"fX c black",
"gX c black",
"hX c black",
"jX c black",
"kX c black",
"lX c black",
"zX c black",
"xX c black",
"cX c black",
"vX c black",
"bX c black",
"nX c black",
"mX c black",
"MX c black",
"NX c black",
"BX c black",
"VX c black",
"CX c black",
"ZX c black",
"AX c black",
"SX c black",
"DX c black",
"FX c black",
"GX c black",
"HX c black",
"JX c black",
"KX c black",
"LX c black",
"PX c black",
"IX c black",
"UX c black",
/* pixels */
"X X o o o o o o o o o o o X X X o X o X X X X o o o o o o X X X X X o o o o o o o o o o o X X X o X o X X X X o o o o o o X X X ",
"$ * $ $ $ O O * * * * + * + O O O # O # + + + + + * = $ * $ $ $ O O * * * * + * + O O O # O # + + + + + * = = * O $ $ + $ $ O O ",
"* * $ $ # O # O O O O O O # # O # # O O O O O O O + O * * $ $ # O # O O O O O O # # O # # O O O O O O O + O # # O O O O O + + + ",
"o X o X X X X o o o o o o X X X o X o X X X X o o o o o X o X X X X o o o o o o X X X o X o X X X X o o o o o X o X X X X o o o ",
"# @ @ # o # O O # # # # O # * $ # @ @ # o # O O # # # # @ @ # o # O O # # # # O # * $ # @ @ # o # O O # # # # @ @ # o # O O # # ",
"2 & > > > > > > > > > < > & & , , < < , , > > > > > , 2 & > > > > > > > > > < > & & , , < < , , > > > > > , 2 & > > > > > > > > ",
"* = - ; * + ; ; ; ; O ; ; * * * > ; > : > : ; ; > ; ; * = - ; * + ; ; ; ; O ; ; = * * > ; > : > : ; ; > ; ; > ; ; > > > > * > ; ",
"* = - = = + ; ; ; * + * ; O + * ; ; > * ; > = - ; * + * = - = = + ; ; ; * + * ; = + * > ; > * ; > = - ; * + ; ; O * ; * > * ; * ",
"* = - = = * ; ; * + O * * O + * * + : * ; * = - = = + * = - = = * ; ; * + O * * = + * * + : * ; * = - = = + : ; ; * + + ; * + * ",
"+ = - = = + ; ; * O + * * O + * + + : + ; * = - = = * + = - = = + ; ; * O + * * = + * + + : + ; * = - = = * ; ; * + O + ; * O * ",
"+ 1       & + O + + O O = O * + O + : * * + O = * + * * * - = O + 1       & + O = = + O = ; * ; O + - * * + ; * * + * * * * + * ",
"1   . @ @   & # + + O O = + * + O + ; * * * O = * O + = * - = O 1   . @ @   & # = = + O = ; * * O + - * * * * + ; O + = * # + O ",
"  # 4 4 4 @   # + + O O # # * + O O ; * $ * O + + * + - O - + %   # 4 4 4 @   # = = + O = O * + O O * * $ * * + * * * - O O + % ",
"# 4 4 4 4 4 @   % + O O = o O * O # * * * # # + + + * O $ * %   # 4 4 4 4 4 @   % = + O = O O * O # O * * # * + + + * O $ * %   ",
"4 4 4 4 4 4 4 @ @ % O O = O # * O O * * + * # + + + * O # %   # 4 4 4 4 4 4 4 @ @ % O O = O * * O O O * + * # + + + * O # %   # ",
"4 4 4 4 4 4 4 4 $ @ & O = O # * O + O * # # # + * # # # #   # 4 4 4 4 4 4 4 4 4 $ @ & O = O * * O + O * # # # + * # # # #   # 4 ",
"4 4 4 4 4 4 4 4 4 $ # 1 = # # * O * O * O O # + O # * O   # 4 4 4 4 4 4 4 4 4 4 4 $ # 1 = O * * O * O * O O # + O # * O   # 4 4 ",
"4 4 4 4 4 4 4 4 4 4 $ $ 1 O # + + + O * # # + + + # #   # 4 4 4 4 4 4 4 4 4 4 4 4 4 $ $ 1 O * + + + O * # # + + + # #   # 4 4 4 ",
"4 4 4 4 4 4 4 4 4 4 & ; : # O + # * # + # + * + # O   # 4 4 4 4 4 4 4 4 4 4 4 4 4 4 & ; : # O + # * # + # + * + # O   # 4 4 4 4 ",
"4 4 4 4 4 4 4 4 4 4 1 > O o # + O + # # O + + + #   # 4 4 4 4 4 4 4 4 4 4 4 4 4 4 4 1 > O o # + O + # # O + + + #   # 4 4 4 4 4 ",
"4 4 4 4 4 4 4 4 4 3 > O O # * O # + # O + + O +   # 4 4 4 4 4 4 4 4 4 4 4 4 4 4 4 3 > = O # * O # + # O + + O +   # 4 4 4 4 4 4 ",
"4 4 4 4 4 4 4 4 3 > + O O + * $ $ O O + O + *   # 4 4 4 4 4 4 4 4 4 4 4 4 4 4 4 3 > + = O + * $ $ O O + O + *   # 4 4 4 4 4 4 4 ",
"4 4 4 4 4 4 4 3 > O $ O + O # * O O + + O +   # 4 4 4 4 4 4 4 4 4 4 4 4 4 4 4 3 > O $ = + O # * O O + + O +   # 4 4 4 4 4 4 4 4 ",
"4 4 4 4 4 4 3 1 $ # o ; + O + O + O # + O   # 4 4 4 4 4 4 4 4 4 4 4 4 4 4 4 3 1 $ # o ; + O + O + O # + O   # 4 4 4 4 4 4 4 4 4 ",
"4 4 4 4 4 3 : O $ O * ; * + O + O O O +   # 4 4 4 4 4 4 4 4 4 4 4 4 4 4 4 3 : O $ O * ; * + O * O O O +   # 4 4 4 4 4 4 4 4 4 4 ",
"4 4 4 4 3 1 o O O + O ; * + # + # # X   # 4 4 4 4 4 4 4 4 4 4 4 4 4 4 4 3 1 o O O + O ; * + # # # # X   # 4 4 4 4 4 4 4 4 4 4 4 ",
"4 4 4 3 > # # O = + + ; = O # + # O   # 4 4 4 4 4 4 4 4 4 4 4 4 4 4 4 3 > # # O = + + ; = O # O # O   # 4 4 4 4 4 4 4 4 4 4 4 4 ",
"4 4 3 > O # O + = + * ; = $ + # #   # 4 4 4 4 4 4 4 4 4 4 4 4 4 4 4 3 > O # O + = + * ; = $ # # #   # 4 4 4 4 4 4 4 4 4 4 4 4 4 ",
"4 3 > * O o + + + + * = * O + #   # 4 4 4 4 4 4 4 4 4 4 4 4 4 4 4 3 > * O o + + + + * = * O # #   # 4 4 4 4 4 4 4 4 4 4 4 4 4 4 ",
"3 > + * O * O + + + + = # O +   # 4 4 4 4 4 4 4 4 4 4 4 4 4 4 4 3 > + * O * O + = + * = + O #   # 4 4 4 4 4 4 4 4 4 4 4 4 4 4 4 ",
"1 O + * + + + + + + + = # O   # 4 4 4 4 4 4 4 4 4 4 4 4 4 4 4 3 1 O + * + + + + + + + = + O   # 4 4 4 4 4 4 4 4 4 4 4 4 4 4 4 3 ",
"o + + * + + # + + # # = $   # 4 4 4 4 4 4 4 4 4 4 4 4 4 4 4 3 > o + + * + + # + + # + + +   # 4 4 4 4 4 4 4 4 4 4 4 4 4 4 4 3 > ",
"# * + = + $ O * + # O +   # 4 4 4 4 4 4 4 4 4 4 4 4 4 4 4 3 1 O # * + = + $ O + + # + +   # 4 4 4 4 4 4 4 4 4 4 4 4 4 4 4 3 1 O ",
"O + + = + * + o + # O   # 4 4 4 4 4 4 4 4 4 4 4 4 4 4 4 3 1 # O O + + = + * O + + # +   # 4 4 4 4 4 4 4 4 4 4 4 4 4 4 4 3 1 # O ",
"* + * = + + + O + #   # 4 4 4 4 4 4 4 4 4 4 4 4 4 4 4 3 1 # O O * + * = + = # + + #   # 4 4 4 4 4 4 4 4 4 4 4 4 4 4 4 3 1 # O O ",
"# + * = + # + # O   # 4 4 4 4 4 4 4 4 4 4 4 4 4 4 4 3 1 # # # O # + * + + = o + +   # 4 4 4 4 4 4 4 4 4 4 4 4 4 4 4 3 1 # # # O ",
"O + + * O # + o   # 4 4 4 4 4 4 4 4 4 4 4 4 4 4 4 3 : O # # # o O + * + O = # +   # 4 4 4 4 4 4 4 4 4 4 4 4 4 4 4 3 : O # # # o ",
"* + + o O # +   # 4 4 4 4 4 4 4 4 4 4 4 4 4 4 4 3 > # # $ # # O * + * + O = #   # 4 4 4 4 4 4 4 4 4 4 4 4 4 4 4 3 > # # $ # # O ",
"* O + O O #   # 4 4 4 4 4 4 4 4 4 4 4 4 4 4 4 3 : X # # o O # o * + # + O +   # 4 4 4 4 4 4 4 4 4 4 4 4 4 4 4 3 : X # # o O # o ",
"* # + o O   # 4 4 4 4 4 4 4 4 4 4 4 4 4 4 4 3 > O O $ # o O # # * + O + O   # 4 4 4 4 4 4 4 4 4 4 4 4 4 4 4 3 > O O $ # o O # # ",
"O # + o   # 4 4 4 4 4 4 4 4 4 4 4 4 4 4 4 3 > # o # # # o O # # O + # o   # 4 4 4 4 4 4 4 4 4 4 4 4 4 4 4 3 > # o # # # o O # # ",
"# # #   # 4 4 4 4 4 4 4 4 4 4 4 4 4 4 4 3 > + O O O # # o O # # # + #   # 4 4 4 4 4 4 4 4 4 4 4 4 4 4 4 3 > + O O O # # o O # # ",
"# #   # 4 4 4 4 4 4 4 4 4 4 4 4 4 4 4 3 1 # # O O # $ O % # O O # #   # 4 4 4 4 4 4 4 4 4 4 4 4 4 4 4 3 1 # $ # # # O O O O O O ",
"#   # 4 4 4 4 4 4 4 4 4 4 4 4 4 4 4 3 > O O # O # $ o # o O O o #   # 4 4 4 4 4 4 4 4 4 4 4 4 4 4 4 3 > O * O # O O # # # O O o ",
"  # 4 4 4 4 4 4 4 4 4 4 4 4 4 4 4 3 1 + O # # o # o o O # o o $   # 4 4 4 4 4 4 4 4 4 4 4 4 4 4 4 3 1 + * o # * # # * O # o o $ ",
"# 4 4 4 4 4 4 4 4 4 4 4 4 4 4 4 3 1 * # # # o O # # # O # o %   # 4 4 4 4 4 4 4 4 4 4 4 4 4 4 4 3 1 * O # O # O O X o O O o %   ",
"4 4 4 4 4 4 4 4 4 4 4 4 4 4 4 3 > $ o # # O o O # # o O * %   # 4 4 4 4 4 4 4 4 4 4 4 4 4 4 4 3 > $ # O * O O # # # $ # O %   # ",
"4 4 4 4 4 4 4 4 4 4 4 4 4 4 3 > O O $ # # $ O O o # O o O # % @ 4 4 4 4 4 4 4 4 4 4 4 4 4 4 3 > O O # # * X # O O O o O O # % @ ",
"@ 4 4 4 4 4 4 4 4 4 4 4 4 3 > $ # O # o O O # # # $ $ $ # # $ ; @ 4 4 4 4 4 4 4 4 4 4 4 4 3 > $ O O # $ # * # # # o O o O # $ ; ",
"> @ 4 4 4 4 4 4 4 4 4 4 3 1 O # O o # O # # o # O o O $ O # # o > @ 4 4 4 4 4 4 4 4 4 4 3 1 O + $ O O O O O # # # O $ # O # # o ",
"# 1 $ 4 4 4 4 4 4 4 4 3 1 $ # # O o O o o O # O O O O # # # O O # 1 $ 4 4 4 4 4 4 4 4 3 1 $ # O o o $ O * O O # # o O O # # O O ",
"# # > % 4 4 4 4 4 4 3 : # o @ # + # # # # O # # O $ # # o # # O # # > % 4 4 4 4 4 4 3 : # O O o # O O O O o # $ X O O O O # # O ",
"# # o : & 4 4 4 4 3 > o O o O X O # # # o O $ @ O # o $ o # o O # # o : & 4 4 4 4 3 > o O # o O + o * # O O # # # # $ O o # o O ",
"# O o o > 1 4 4 3 1 # # # o o o O o O O O o $ o # # + # # O o # # O o o > 1 4 4 3 1 # O O O O # O $ O o o o O o O * # O o O o # ",
"O O O O O > 1 % : # O O # @ o # # # o o O O # O * # * # # # $ # O O O O O > 1 % : # O o @ # O o # # O O # $ # # X $ $ $ O # $ # ",
"o # # # # o * * o o o $ o O # # o o o # # # O O # o # O # # # # o # # # # o * * o # o $ $ # O # # O O O # O # # $ * O o # # # # ",
"O * # # # o o o o O o # # @ O # $ * O O o O # # O # # # O o # * O * # # # o o o # X # O O # # O # # o O O # X # O # * # # # # * ",
"o o o o o X X X X X o o o o o o o o o o o X X X o X o X X X X o o o o o o X X X X X o o o o o o o o o o o X X X o X o X X X X o ",
"# # # # O # * $ o $ $ $ @ @ @ @ @ o X o # # @ o # @ @ # o # O O # # # # O # * $ o $ $ $ @ @ @ @ @ o X o # # @ o # @ @ # o # O O ",
"> > > < > & & * $ & , & $ $ $ * & * $ * $ & * * % & & 1 2 & & 1 2 2 & > > & & * $ & , & $ $ $ * & * $ * $ & * * % & & 1 2 & & 1 ",
"o # # # * # # O o O O O * # X O o @ # # o # # o o O # # # # O O # * $ O @ # # # + O o o # # * o o o O O X # O O o # # # * # # O ",
"o O # $ * o # # @ O O O * O # # o o # # o O # # o O # $ * o # @ # O $ # o O o # o o o O o # O o O O # # # $ # # o O # $ * o # # ",
"# # # * O o O # # O O O O o O # $ # # # o O # # # # # * O o O @ # # $ O o O # # + o # O # O # # # o # * O o # O # # # * O o O # ",
"O O $ # O O O # O O $ O O O O # O O # # o O # # O O $ # O O O $ # O # * o O # # + O O # o o # # O O X # O # O # O O $ # O O O # "
};
